<svg width="26" height="24" viewBox="0 0 26 24" fill="none" xmlns="http://www.w3.org/2000/svg">
<mask id="path-1-inside-1_74_112" fill="white">
<path fill-rule="evenodd" clip-rule="evenodd" d="M7.97606 0.567333C5.96961 0.386507 4.372 1.90873 3.25493 3.82055C2.13157 5.74387 1.34031 8.29187 0.90254 10.8366C0.467285 13.3796 0.357842 16.0789 0.708814 18.3392C1.05098 20.5354 1.92149 22.7941 3.75308 23.5092C5.50039 24.1914 7.06781 23.2215 8.26539 21.9047C9.46549 20.5864 10.5046 18.7058 11.3424 16.8893C11.999 15.4641 12.5601 14.0125 13.0004 12.7731C13.4406 14.0109 14.0017 15.4641 14.6571 16.8893C15.4949 18.7058 16.534 20.5864 17.7341 21.9047C18.9316 23.2215 20.4991 24.1914 22.2464 23.5092C24.078 22.7941 24.9485 20.5354 25.2906 18.3392C25.6429 16.0789 25.5322 13.3796 25.0969 10.8366C24.6591 8.29187 23.8679 5.74223 22.7445 3.82055C21.6287 1.90873 20.0311 0.384863 18.0247 0.567333C15.8434 0.764597 14.2885 2.98217 13.3866 4.65728C13.2527 4.90761 13.1239 5.1625 13.0004 5.42167C12.8765 5.16238 12.7473 4.90749 12.6129 4.65728C11.7109 2.98053 10.1574 0.766241 7.97606 0.567333ZM11.56 8.82777C11.204 10.0031 10.3398 12.6876 9.18496 15.1945C8.40377 16.8909 7.53326 18.4132 6.64388 19.3896C5.7545 20.3677 5.05633 20.5864 4.47389 20.3595C3.97574 20.1655 3.44614 19.4389 3.17316 17.6849C2.9115 15.9967 2.97566 13.7807 3.35682 11.5566C3.73924 9.33244 4.411 7.25952 5.25383 5.81456C6.10295 4.35974 6.97598 3.77288 7.79994 3.84849C8.76354 3.93562 9.72463 5.00742 10.5524 6.54772C11.0153 7.40747 11.3612 8.27707 11.5587 8.82612M14.437 8.82612C14.7917 10.0015 15.6572 12.6859 16.8107 15.1928C17.5932 16.8893 18.4637 18.4115 19.3518 19.388C20.2424 20.3661 20.9394 20.5847 21.5231 20.3579C22.0199 20.1639 22.5495 19.4373 22.8225 17.6833C23.0854 15.995 23.0213 13.7791 22.6389 11.5549C22.2564 9.33079 21.5859 7.25787 20.7419 5.81291C19.8927 4.35809 19.021 3.77123 18.1957 3.84685C17.2321 3.93397 16.2711 5.00578 15.4433 6.54608C15.0599 7.26758 14.7233 8.0297 14.437 8.82448"/>
</mask>
<path fill-rule="evenodd" clip-rule="evenodd" d="M7.97606 0.567333C5.96961 0.386507 4.372 1.90873 3.25493 3.82055C2.13157 5.74387 1.34031 8.29187 0.90254 10.8366C0.467285 13.3796 0.357842 16.0789 0.708814 18.3392C1.05098 20.5354 1.92149 22.7941 3.75308 23.5092C5.50039 24.1914 7.06781 23.2215 8.26539 21.9047C9.46549 20.5864 10.5046 18.7058 11.3424 16.8893C11.999 15.4641 12.5601 14.0125 13.0004 12.7731C13.4406 14.0109 14.0017 15.4641 14.6571 16.8893C15.4949 18.7058 16.534 20.5864 17.7341 21.9047C18.9316 23.2215 20.4991 24.1914 22.2464 23.5092C24.078 22.7941 24.9485 20.5354 25.2906 18.3392C25.6429 16.0789 25.5322 13.3796 25.0969 10.8366C24.6591 8.29187 23.8679 5.74223 22.7445 3.82055C21.6287 1.90873 20.0311 0.384863 18.0247 0.567333C15.8434 0.764597 14.2885 2.98217 13.3866 4.65728C13.2527 4.90761 13.1239 5.1625 13.0004 5.42167C12.8765 5.16238 12.7473 4.90749 12.6129 4.65728C11.7109 2.98053 10.1574 0.766241 7.97606 0.567333ZM11.56 8.82777C11.204 10.0031 10.3398 12.6876 9.18496 15.1945C8.40377 16.8909 7.53326 18.4132 6.64388 19.3896C5.7545 20.3677 5.05633 20.5864 4.47389 20.3595C3.97574 20.1655 3.44614 19.4389 3.17316 17.6849C2.9115 15.9967 2.97566 13.7807 3.35682 11.5566C3.73924 9.33244 4.411 7.25952 5.25383 5.81456C6.10295 4.35974 6.97598 3.77288 7.79994 3.84849C8.76354 3.93562 9.72463 5.00742 10.5524 6.54772C11.0153 7.40747 11.3612 8.27707 11.5587 8.82612M14.437 8.82612C14.7917 10.0015 15.6572 12.6859 16.8107 15.1928C17.5932 16.8893 18.4637 18.4115 19.3518 19.388C20.2424 20.3661 20.9394 20.5847 21.5231 20.3579C22.0199 20.1639 22.5495 19.4373 22.8225 17.6833C23.0854 15.995 23.0213 13.7791 22.6389 11.5549C22.2564 9.33079 21.5859 7.25787 20.7419 5.81291C19.8927 4.35809 19.021 3.77123 18.1957 3.84685C17.2321 3.93397 16.2711 5.00578 15.4433 6.54608C15.0599 7.26758 14.7233 8.0297 14.437 8.82448" fill="white"/>
<path d="M7.97606 0.567333L8.06687 -0.428536L8.06582 -0.428631L7.97606 0.567333ZM3.25493 3.82055L2.39151 3.31606L2.39143 3.3162L3.25493 3.82055ZM0.90254 10.8366L-0.0829837 10.667L-0.0831276 10.6679L0.90254 10.8366ZM0.708814 18.3392L-0.279345 18.4926L-0.279266 18.4931L0.708814 18.3392ZM3.75308 23.5092L4.11678 22.5776L4.11676 22.5776L3.75308 23.5092ZM8.26539 21.9047L7.52589 21.2316L7.5256 21.2319L8.26539 21.9047ZM11.3424 16.8893L12.2504 17.3081L12.2506 17.3078L11.3424 16.8893ZM13.0004 12.7731L13.9425 12.4379L12.9997 9.78732L12.058 12.4383L13.0004 12.7731ZM14.6571 16.8893L13.7486 17.3071L13.749 17.3081L14.6571 16.8893ZM17.7341 21.9047L18.4739 21.2319L18.4736 21.2316L17.7341 21.9047ZM22.2464 23.5092L21.8827 22.5776L21.8827 22.5776L22.2464 23.5092ZM25.2906 18.3392L24.3026 18.1852L24.3026 18.1852L25.2906 18.3392ZM25.0969 10.8366L26.0826 10.6679L26.0824 10.667L25.0969 10.8366ZM22.7445 3.82055L21.8809 4.32462L21.8812 4.32522L22.7445 3.82055ZM18.0247 0.567333L18.1147 1.56327L18.1152 1.56322L18.0247 0.567333ZM13.3866 4.65728L12.5061 4.18318L12.5047 4.1858L13.3866 4.65728ZM13.0004 5.42167L12.0981 5.85277L13.0012 7.74321L13.903 5.85208L13.0004 5.42167ZM12.6129 4.65728L13.4939 4.18415L13.4936 4.18354L12.6129 4.65728ZM9.18496 15.1945L8.2767 14.7761L8.27664 14.7762L9.18496 15.1945ZM6.64388 19.3896L5.90457 18.7162L5.90401 18.7169L6.64388 19.3896ZM4.47389 20.3595L4.83683 19.4277L4.83675 19.4277L4.47389 20.3595ZM3.17316 17.6849L2.18496 17.8381L2.18506 17.8387L3.17316 17.6849ZM3.35682 11.5566L2.37128 11.3871L2.37119 11.3877L3.35682 11.5566ZM5.25383 5.81456L4.39017 5.31048L4.39004 5.31071L5.25383 5.81456ZM7.79994 3.84849L7.70856 4.84431L7.7099 4.84443L7.79994 3.84849ZM10.5524 6.54772L9.6715 7.02109L9.67189 7.02182L10.5524 6.54772ZM16.8107 15.1928L15.9023 15.6108L15.9027 15.6116L16.8107 15.1928ZM19.3518 19.388L18.612 20.0608L18.6124 20.0612L19.3518 19.388ZM21.5231 20.3579L21.8853 21.2899L21.8867 21.2894L21.5231 20.3579ZM22.8225 17.6833L21.8344 17.5294L21.8344 17.5295L22.8225 17.6833ZM20.7419 5.81291L19.8782 6.317L19.8784 6.31732L20.7419 5.81291ZM18.1957 3.84685L18.2858 4.84279L18.287 4.84268L18.1957 3.84685ZM15.4433 6.54608L14.5624 6.07271L14.5603 6.07679L15.4433 6.54608ZM8.06582 -0.428631C5.44151 -0.665139 3.55015 1.33309 2.39151 3.31606L4.11834 4.32504C5.19384 2.48437 6.49771 1.43815 7.8863 1.5633L8.06582 -0.428631ZM2.39143 3.3162C1.18779 5.37698 0.367109 8.0507 -0.0829833 10.667L1.88806 11.0061C2.31351 8.53303 3.07535 6.11077 4.11843 4.32489L2.39143 3.3162ZM-0.0831276 10.6679C-0.531272 13.2862 -0.651149 16.0981 -0.279345 18.4926L1.69697 18.1858C1.36683 16.0596 1.46584 13.473 1.88821 11.0053L-0.0831276 10.6679ZM-0.279266 18.4931C-0.0980815 19.6561 0.229531 20.8866 0.787738 21.9458C1.34662 23.0063 2.1772 23.9674 3.3894 24.4407L4.11676 22.5776C3.49737 22.3358 2.9769 21.81 2.55709 21.0134C2.1366 20.2155 1.85787 19.2185 1.69689 18.1852L-0.279266 18.4931ZM3.38939 24.4407C5.74634 25.3609 7.73626 23.9728 9.00518 22.5776L7.5256 21.2319C6.39936 22.4702 5.25444 23.0218 4.11678 22.5776L3.38939 24.4407ZM9.00489 22.5779C10.3101 21.144 11.4005 19.1509 12.2504 17.3081L10.4343 16.4705C9.60861 18.2607 8.62083 20.0287 7.52589 21.2316L9.00489 22.5779ZM12.2506 17.3078C12.9236 15.847 13.4958 14.3658 13.9427 13.1078L12.058 12.4383C11.6243 13.6593 11.0744 15.0811 10.4341 16.4708L12.2506 17.3078ZM12.0582 13.1082C12.5049 14.3639 13.0769 15.8466 13.7486 17.3071L15.5656 16.4715C14.9265 15.0816 14.3764 13.6578 13.9425 12.4379L12.0582 13.1082ZM13.749 17.3081C14.5989 19.1509 15.6893 21.144 16.9946 22.5779L18.4736 21.2316C17.3786 20.0287 16.3908 18.2607 15.5652 16.4705L13.749 17.3081ZM16.9943 22.5776C18.2632 23.9728 20.2531 25.3609 22.6101 24.4407L21.8827 22.5776C20.745 23.0218 19.6001 22.4702 18.4739 21.2319L16.9943 22.5776ZM22.6101 24.4407C23.8223 23.9674 24.6528 23.0063 25.2117 21.9458C25.7699 20.8866 26.0975 19.6561 26.2787 18.4931L24.3026 18.1852C24.1416 19.2185 23.8629 20.2155 23.4424 21.0134C23.0226 21.81 22.5021 22.3358 21.8827 22.5776L22.6101 24.4407ZM26.2787 18.4932C26.652 16.098 26.5307 13.2858 26.0826 10.6679L24.1113 11.0053C24.5337 13.4734 24.6338 16.0597 24.3026 18.1852L26.2787 18.4932ZM26.0824 10.667C25.6324 8.05095 24.8117 5.37532 23.6078 3.31588L21.8812 4.32522C22.924 6.10914 23.6859 8.53279 24.1114 11.0061L26.0824 10.667ZM23.6082 3.31648C22.4511 1.33387 20.5594 -0.667311 17.9341 -0.428558L18.1152 1.56322C19.5028 1.43704 20.8064 2.48359 21.8809 4.32462L23.6082 3.31648ZM17.9346 -0.428603C16.5193 -0.300616 15.3776 0.476173 14.5123 1.35752C13.6444 2.24144 12.978 3.3067 12.5061 4.18318L14.267 5.13137C14.697 4.33275 15.259 3.45167 15.9394 2.75871C16.6223 2.06318 17.3487 1.63255 18.1147 1.56327L17.9346 -0.428603ZM12.5047 4.1858C12.3635 4.44982 12.2278 4.7184 12.0977 4.99127L13.903 5.85208C14.0201 5.60659 14.1419 5.3654 14.2684 5.12875L12.5047 4.1858ZM13.9027 4.99058C13.7721 4.71728 13.6358 4.44837 13.4939 4.18415L11.7319 5.1304C11.8588 5.36661 11.9809 5.60749 12.0981 5.85277L13.9027 4.99058ZM13.4936 4.18354C13.0215 3.30601 12.3554 2.24106 11.4878 1.35748C10.6225 0.476358 9.48144 -0.299544 8.06687 -0.428535L7.88525 1.5632C8.65199 1.63312 9.37833 2.06381 10.0607 2.75875C10.7407 3.45123 11.3023 4.33179 11.7322 5.13101L13.4936 4.18354ZM10.6029 8.53789C10.2517 9.69734 9.40307 12.3309 8.2767 14.7761L10.0932 15.6129C11.2765 13.0442 12.1562 10.3089 12.5171 9.11765L10.6029 8.53789ZM8.27664 14.7762C7.50771 16.446 6.68856 17.8555 5.90458 18.7162L7.38318 20.063C8.37796 18.9708 9.29982 17.3358 10.0933 15.6127L8.27664 14.7762ZM5.90401 18.7169C5.51201 19.148 5.23157 19.3319 5.06096 19.4026C4.92271 19.4599 4.87018 19.4407 4.83683 19.4277L4.11096 21.2913C5.29375 21.752 6.41228 21.1307 7.38374 20.0624L5.90401 18.7169ZM4.83675 19.4277C4.87818 19.4438 4.77672 19.4252 4.61967 19.1333C4.46279 18.8418 4.2874 18.3416 4.16127 17.5311L2.18506 17.8387C2.3319 18.7822 2.5578 19.5224 2.8585 20.0811C3.15904 20.6396 3.57145 21.0812 4.11104 21.2913L4.83675 19.4277ZM4.16136 17.5318C3.92045 15.9774 3.97426 13.874 4.34245 11.7255L2.37119 11.3877C1.97706 13.6875 1.90256 16.016 2.18496 17.8381L4.16136 17.5318ZM4.34236 11.726C4.7124 9.57388 5.35471 7.62634 6.11762 6.3184L4.39004 5.31071C3.46728 6.8927 2.76608 9.09099 2.37128 11.3871L4.34236 11.726ZM6.11749 6.31864C6.91954 4.94447 7.4974 4.82493 7.70856 4.84431L7.89133 2.85268C6.45456 2.72082 5.28637 3.775 4.39017 5.31048L6.11749 6.31864ZM7.7099 4.84443C7.85624 4.85766 8.12931 4.96358 8.51458 5.35482C8.88857 5.7346 9.28336 6.29883 9.6715 7.02109L11.4332 6.07436C10.9936 5.25632 10.494 4.5145 9.93962 3.95152C9.39652 3.4 8.70724 2.92645 7.88999 2.85256L7.7099 4.84443ZM9.67189 7.02182C10.1033 7.8231 10.4302 8.64311 10.6178 9.1646L12.4997 8.48765C12.2923 7.91104 11.9272 6.99183 11.4328 6.07363L9.67189 7.02182ZM13.4796 9.11507C13.8396 10.3077 14.7205 13.0426 15.9023 15.6108L17.7192 14.7748C16.5938 12.3292 15.7438 9.6953 15.3943 8.53718L13.4796 9.11507ZM15.9027 15.6116C16.6972 17.3344 17.619 18.969 18.612 20.0608L20.0916 18.7151C19.3084 17.8541 18.4891 16.4442 17.7188 14.774L15.9027 15.6116ZM18.6124 20.0612C19.5849 21.1293 20.7017 21.7499 21.8853 21.2899L21.1608 19.4258C21.1262 19.4392 21.0733 19.4581 20.9354 19.401C20.7647 19.3302 20.4841 19.1462 20.0912 18.7147L18.6124 20.0612ZM21.8867 21.2894C22.4255 21.079 22.8373 20.6373 23.1375 20.0792C23.4379 19.5206 23.6638 18.7806 23.8106 17.8371L21.8344 17.5295C21.7083 18.3399 21.5329 18.8403 21.376 19.1319C21.2189 19.4241 21.1175 19.4427 21.1594 19.4263L21.8867 21.2894ZM23.8106 17.8372C24.0945 16.0145 24.0199 13.6856 23.6244 11.3855L21.6533 11.7244C22.0227 13.8726 22.0764 15.9755 21.8344 17.5294L23.8106 17.8372ZM23.6244 11.3855C23.2297 9.08987 22.5298 6.89109 21.6053 5.30851L19.8784 6.31732C20.6421 7.62466 21.2832 9.57172 21.6533 11.7244L23.6244 11.3855ZM21.6055 5.30883C20.7094 3.77357 19.5426 2.71924 18.1045 2.85102L18.287 4.84268C18.4993 4.82322 19.076 4.94261 19.8782 6.317L21.6055 5.30883ZM18.1057 2.85091C17.2884 2.9248 16.5992 3.39835 16.0561 3.94987C15.5017 4.51285 15.0021 5.25467 14.5625 6.07271L16.3242 7.01945C16.7123 6.29718 17.1071 5.73295 17.4811 5.35317C17.8664 4.96193 18.1394 4.85602 18.2858 4.84279L18.1057 2.85091ZM14.5603 6.07679C14.1538 6.84172 13.798 7.64753 13.4961 8.48557L15.3778 9.16339C15.6485 8.41188 15.966 7.69345 16.3264 7.01537L14.5603 6.07679Z" fill="#4C765F" mask="url(#path-1-inside-1_74_112)"/>
</svg>
